<svg enable-background="new 0 0 801 597" height="597" viewBox="0 0 801 597" width="801" xmlns="http://www.w3.org/2000/svg"><path d="m56.719 324.433 551.248-318.266c16.042-9.261 36.553-3.766 45.816 12.276 9.264 16.042 3.769 36.554-12.277 45.813l-115.179 66.504c-12.091 6.977-16.228 22.432-9.249 34.515 6.998 12.124 22.522 16.248 34.615 9.187l73.528-42.927c12.364-7.216 28.238-3.007 35.396 9.392 7.043 12.194 3.017 27.781-9.045 35.042l-86.604 52.146c-13.523 8.144-18.043 25.624-10.146 39.293 8.001 13.855 25.714 18.604 39.567 10.604l67.19-38.792c10.563-6.099 24.069-2.479 30.171 8.09 6.102 10.564 2.482 24.072-8.083 30.171l-552.252 314.7c-16.248 9.106-36.799 3.462-46.112-12.67-9.399-16.273-3.821-37.087 12.454-46.48l125.09-72.224c-16.831-29.153-6.841-66.428 22.312-83.259l20.14-11.631c15.526-8.967 20.85-28.821 11.885-44.353-8.965-15.526-28.825-20.849-44.352-11.882l-138.469 79.949c-18.005 10.394-41.023 4.226-51.42-13.779-10.394-18.004-4.229-41.023 13.776-51.419z" fill="#edf0f4"/><path d="m749.096 189.124-40.302 23.269c-9.604 5.541-21.887 2.251-27.431-7.35-5.545-9.608-2.255-21.895 7.347-27.436l40.302-23.27c9.604-5.548 21.888-2.254 27.436 7.35 5.542 9.608 2.248 21.889-7.352 27.437z" fill="#edf0f4"/><path d="m355.457 481.348v-202.323c0-6.097-4.945-11.042-11.043-11.042h-163.184c-6.102 0-11.043 4.945-11.043 11.042v202.323z" fill="#fff"/><path d="m170.188 296.602v-19.335c0-5.125 4.156-9.285 9.285-9.285h166.699c5.125 0 9.285 4.16 9.285 9.285v19.335z" fill="#bcbec0"/><path d="m170.188 297.106h183.386" fill="none" stroke="#414042" stroke-miterlimit="10" stroke-width="6"/><path d="m191.465 283.868h4.734" fill="none" stroke="#414042" stroke-miterlimit="10" stroke-width="6"/><path d="m205.949 283.868h4.735" fill="none" stroke="#414042" stroke-miterlimit="10" stroke-width="6"/><path d="m220.43 283.868h4.738" fill="none" stroke="#414042" stroke-miterlimit="10" stroke-width="6"/><path d="m195.008 318.477h135.629v53.5h-135.629z" fill="#e6e7e8"/><path d="m195.02 405.946h41.238v53.496h-41.238z" fill="#e6e7e8"/><path d="m242.84 405.946h41.238v53.496h-41.238z" fill="#f1f2f2"/><path d="m290.66 405.946h41.238v53.496h-41.238z" fill="#e6e7e8"/><g fill="none"><path d="m234 388.899h57.668" stroke="#414042" stroke-miterlimit="10" stroke-width="6"/><path d="m355.457 348.215v-69.19c0-6.097-4.945-11.042-11.043-11.042h-163.184c-6.102 0-11.043 4.945-11.043 11.042v63.046" stroke="#414042" stroke-miterlimit="10" stroke-width="6"/><path d="m454.777 128.432h17.512" stroke="#414042" stroke-linecap="round" stroke-miterlimit="10" stroke-width="6"/><path d="m463.535 137.186v-17.508" stroke="#414042" stroke-linecap="round" stroke-miterlimit="10" stroke-width="6"/><path d="m21.563 341.133h17.507" stroke="#414042" stroke-linecap="round" stroke-miterlimit="10" stroke-width="6"/><path d="m30.316 349.887v-17.508" stroke="#414042" stroke-linecap="round" stroke-miterlimit="10" stroke-width="6"/><path d="m101.547 253.807 12.383-12.383" stroke="#414042" stroke-linecap="round" stroke-miterlimit="10" stroke-width="6"/><path d="m113.93 253.807-12.383-12.383" stroke="#414042" stroke-linecap="round" stroke-miterlimit="10" stroke-width="6"/><path d="m652.082 251.584 12.379-12.383" stroke="#414042" stroke-linecap="round" stroke-miterlimit="10" stroke-width="6"/><path d="m664.461 251.584-12.379-12.383" stroke="#414042" stroke-linecap="round" stroke-miterlimit="10" stroke-width="6"/><path d="m147.648 247.615h120.395" stroke="#414042" stroke-miterlimit="10" stroke-width="6"/><path d="m666.605 337.664h120.395" stroke="#414042" stroke-miterlimit="10" stroke-width="6"/><path d="m141.504 247.615h-12.5" stroke="#414042" stroke-miterlimit="10" stroke-width="6"/><path d="m211.848 128.432h222.605" stroke="#414042" stroke-miterlimit="10" stroke-width="6"/></g><circle cx="626.863" cy="339.281" fill="#414042" r="5.004"/><path d="m307.813 233.268c0 2.766-2.238 5.008-5.004 5.008-2.762 0-5.004-2.242-5.004-5.008 0-2.762 2.242-5.004 5.004-5.004 2.765 0 5.004 2.242 5.004 5.004z" fill="#414042"/><path d="m100.395 336.129c0 2.762-2.242 5.004-5.008 5.004-2.762 0-5.004-2.242-5.004-5.004 0-2.766 2.242-5.004 5.004-5.004 2.765 0 5.008 2.239 5.008 5.004z" fill="#414042"/><circle cx="714.34" cy="249.096" fill="#414042" r="3.703"/><circle cx="489.648" cy="159.592" fill="#414042" r="3.703"/><circle cx="156.207" cy="159.592" fill="#414042" r="3.703"/><path d="m567.121 481.348h-281.785c0-77.813 63.078-140.895 140.895-140.895 77.812 0 140.89 63.082 140.89 140.895z" fill="#fff"/><path d="m426.23 376.453c65.367 0 120.32 44.523 136.23 104.895h4.66c0-77.813-63.078-140.895-140.891-140.895-77.816 0-140.895 63.082-140.895 140.895h4.66c15.912-60.371 70.865-104.895 136.236-104.895z" fill="#d1d3d4"/><path d="m514.957 371.485c4.754 3.84 9.25 7.984 13.465 12.402 2.699 2.824 5.281 5.766 7.738 8.809" fill="none" stroke="#414042" stroke-miterlimit="10" stroke-width="6"/><path d="m284.996 481.348c0-77.98 63.227-141.211 141.234-141.211 29.25 0 56.422 8.891 78.961 24.117" fill="none" stroke="#414042" stroke-miterlimit="10" stroke-width="6"/><path d="m475.844 349.129c19.078 30.898 31.523 71.105 33.98 115.586v16.633" fill="none" stroke="#414042" stroke-miterlimit="10" stroke-width="6"/><path d="m380.223 349.129c-19.086 30.918-31.563 71.156-34.012 115.676v16.543" fill="none" stroke="#414042" stroke-miterlimit="10" stroke-width="6"/><path d="m426.23 340.137v141.211" fill="none" stroke="#414042" stroke-miterlimit="10" stroke-width="6"/><path d="m302.809 414.258h247.824" fill="none" stroke="#414042" stroke-miterlimit="10" stroke-width="6"/><path d="m426.23 167.748c-35.523 0-64.32 28.797-64.32 64.316s64.32 108.072 64.32 108.072 64.316-72.553 64.316-108.072c.001-35.519-28.796-64.316-64.316-64.316zm0 95.285c-20.605 0-37.305-16.703-37.305-37.305s16.699-37.305 37.305-37.305c20.602 0 37.305 16.703 37.305 37.305s-16.703 37.305-37.305 37.305z" fill="#ff6d29"/><path d="m371.602 198.1c-6.141 9.855-9.691 21.496-9.691 33.965 0 35.519 64.32 108.072 64.32 108.072s64.316-72.553 64.316-108.072c0-35.52-28.797-64.316-64.316-64.316-8.184 0-16.008 1.527-23.207 4.313m-9.79 4.792c-1.836 1.477-10.816 8.066-12.48 9.73m45.476 76.449c-20.605 0-37.305-16.703-37.305-37.305s16.699-37.305 37.305-37.305c20.602 0 37.305 16.703 37.305 37.305s-16.703 37.305-37.305 37.305z" fill="none" stroke="#414042" stroke-miterlimit="10" stroke-width="6"/><path d="m570.949 242.733h-.453c-1.992-6.863-8.313-11.883-15.816-11.883-3.277 0-6.32.965-8.887 2.613-1.664-10.809-10.98-19.094-22.258-19.094-10.121 0-18.684 6.668-21.539 15.852-1.285-.344-2.625-.547-4.023-.547-7.723 0-14.109 5.66-15.277 13.059h-2.523c-6.359 0-11.566 5.203-11.566 11.563v.852c0 6.359 5.207 11.562 11.566 11.562h90.777c6.359 0 11.563-5.203 11.563-11.562v-.852c-.001-6.36-5.204-11.563-11.564-11.563z" fill="#fff"/><path d="m496.387 266.709h-16.215c-6.359 0-11.566-5.203-11.566-11.562v-.852c0-6.359 5.207-11.563 11.566-11.563h2.523c1.168-7.398 7.555-13.059 15.277-13.059 1.398 0 2.738.203 4.023.547 2.855-9.184 11.418-15.852 21.539-15.852 11.277 0 20.594 8.285 22.258 19.094 2.566-1.648 5.609-2.613 8.887-2.613 7.504 0 13.824 5.02 15.816 11.883h.453c6.359 0 11.563 5.203 11.563 11.563v.852c0 6.359-5.203 11.562-11.563 11.562h-17.52z" fill="#fff"/><path d="m570.949 242.733h-.453c-1.992-6.863-8.313-11.883-15.816-11.883-3.277 0-6.32.965-8.887 2.613-1.664-10.809-10.98-19.094-22.258-19.094-10.121 0-18.684 6.668-21.539 15.852-1.285-.344-2.625-.547-4.023-.547-7.723 0-14.109 5.66-15.277 13.059h-2.523c-6.359 0-11.566 5.203-11.566 11.563v.852c0 6.359 5.207 11.562 11.566 11.562h90.777c6.359 0 11.563-5.203 11.563-11.562v-.852c-.001-6.36-5.204-11.563-11.564-11.563z" fill="none" stroke="#414042" stroke-miterlimit="10" stroke-width="4"/><path d="m496.387 266.709h-16.215c-6.359 0-11.566-5.203-11.566-11.562v-.852c0-6.359 5.207-11.563 11.566-11.563h2.523c1.168-7.398 7.555-13.059 15.277-13.059 1.398 0 2.738.203 4.023.547 2.855-9.184 11.418-15.852 21.539-15.852 11.277 0 20.594 8.285 22.258 19.094 2.566-1.648 5.609-2.613 8.887-2.613 7.504 0 13.824 5.02 15.816 11.883h.453c6.359 0 11.563 5.203 11.563 11.563v.852c0 6.359-5.203 11.562-11.563 11.562h-17.52z" fill="none" stroke="#414042" stroke-miterlimit="10" stroke-width="6"/><path d="m355.547 181.158h-.324c-1.422-4.895-5.934-8.48-11.289-8.48-2.336 0-4.512.691-6.34 1.867-1.191-7.715-7.84-13.629-15.887-13.629-7.227 0-13.34 4.758-15.375 11.313-.918-.246-1.875-.387-2.871-.387-5.516 0-10.074 4.039-10.906 9.316h-1.801c-4.539 0-8.254 3.715-8.254 8.254v.609c0 4.539 3.715 8.254 8.254 8.254h64.793c4.539 0 8.254-3.715 8.254-8.254v-.609c0-4.539-3.715-8.254-8.254-8.254z" fill="#fff"/><path d="m302.328 198.276h-11.574c-4.539 0-8.254-3.715-8.254-8.254v-.609c0-4.539 3.715-8.254 8.254-8.254h1.801c.832-5.277 5.391-9.316 10.906-9.316.996 0 1.953.141 2.871.387 2.035-6.555 8.148-11.313 15.375-11.313 8.047 0 14.695 5.914 15.887 13.629 1.828-1.176 4.004-1.867 6.34-1.867 5.355 0 9.867 3.586 11.289 8.48h.324c4.539 0 8.254 3.715 8.254 8.254v.609c0 4.539-3.715 8.254-8.254 8.254h-12.504z" fill="none" stroke="#414042" stroke-miterlimit="10" stroke-width="6"/><path d="m691.379 295.051h-.203c-.906-3.117-3.777-5.394-7.184-5.394-1.488 0-2.871.438-4.035 1.188-.758-4.91-4.984-8.671-10.105-8.671-4.598 0-8.488 3.027-9.781 7.199-.582-.156-1.195-.25-1.828-.25-3.508 0-6.406 2.57-6.938 5.929h-1.145c-2.891 0-5.254 2.363-5.254 5.25v.387c0 2.887 2.363 5.25 5.254 5.25h41.219c2.887 0 5.25-2.363 5.25-5.25v-.387c0-2.888-2.363-5.251-5.25-5.251z" fill="#fff"/><path d="m657.523 305.938h-7.363c-2.891 0-5.254-2.363-5.254-5.25v-.387c0-2.887 2.363-5.25 5.254-5.25h1.145c.531-3.359 3.43-5.929 6.938-5.929.633 0 1.246.094 1.828.25 1.293-4.172 5.184-7.199 9.781-7.199 5.121 0 9.348 3.761 10.105 8.671 1.164-.75 2.547-1.188 4.035-1.188 3.406 0 6.277 2.277 7.184 5.394h.203c2.887 0 5.25 2.363 5.25 5.25v.387c0 2.887-2.363 5.25-5.25 5.25h-7.953-25.903z" fill="none" stroke="#414042" stroke-miterlimit="10" stroke-width="6"/><path d="m570.48 169.533h-34.281l-16.063-31.398c-1.223-2.387.512-5.223 3.195-5.223h11.855c1.004 0 1.961.422 2.641 1.16z" fill="#fff"/><path d="m570.48 169.533h-34.281l-16.063-31.398c-1.223-2.387.512-5.223 3.195-5.223h11.855c1.004 0 1.961.422 2.641 1.16z" fill="#fff"/><path d="m527.094 132.912h-3.762c-2.684 0-4.418 2.836-3.195 5.223l16.063 31.398h13.355l-22.063-35.121c-.25-.492-.355-.996-.398-1.5z" fill="#d1d3d4"/><path d="m570.48 169.533h-34.281l-16.063-31.398c-1.223-2.387.512-5.223 3.195-5.223h11.855c1.004 0 1.961.422 2.641 1.16z" fill="none" stroke="#414042" stroke-miterlimit="10" stroke-width="6"/><path d="m690.18 153.139h-.395c-1.734-5.977-7.238-10.348-13.777-10.348-2.852 0-5.504.84-7.738 2.277-1.453-9.418-9.566-16.637-19.391-16.637-8.816 0-16.277 5.809-18.762 13.809-1.117-.301-2.289-.477-3.504-.477-6.73 0-12.293 4.934-13.313 11.375h-2.195c-5.539 0-10.074 4.535-10.074 10.074v.742c0 5.539 4.535 10.074 10.074 10.074h79.074c5.539 0 10.074-4.535 10.074-10.074v-.742c.001-5.538-4.534-10.073-10.073-10.073z" fill="#fff"/><path d="m690.18 174.03c5.539 0 10.074-4.535 10.074-10.074v-.742c0-5.539-4.535-10.074-10.074-10.074h-.395c-1.734-5.977-7.238-10.348-13.777-10.348-2.852 0-5.504.84-7.738 2.277-1.453-9.418-9.566-16.637-19.391-16.637-8.816 0-16.277 5.809-18.762 13.809-1.117-.301-2.289-.477-3.504-.477-6.73 0-12.293 4.934-13.313 11.375h-2.195c-3.676 0-6.906 1.996-8.668 4.957" fill="none" stroke="#414042" stroke-miterlimit="10" stroke-width="6"/><path d="m661.672 143.475c-2.914-4.488-7.965-7.461-13.719-7.461-3.047 0-5.898.832-8.34 2.281" fill="none" stroke="#414042" stroke-miterlimit="10" stroke-width="6"/><path d="m626.863 141.709c3.863 0 6.992 3.129 6.992 6.992" fill="none" stroke="#414042" stroke-miterlimit="10" stroke-width="6"/><path d="m689.832 181.74h-3.305c-2.941-7.996-10.559-13.73-19.578-13.73h-139.902c0 19.309 15.652 34.957 34.957 34.957h88.074 37.801 1.953c5.324 0 9.641-4.316 9.641-9.637v-1.949c0-5.324-4.317-9.641-9.641-9.641z" fill="#fff"/><path d="m689.832 194.776h-1.953-37.801-88.074c-16.48 0-30.258-11.418-33.949-26.766h-1.008c0 19.309 15.652 34.957 34.957 34.957h88.074 37.801 1.953c5.324 0 9.641-4.316 9.641-9.637v-1.949c0-1.102-.223-2.141-.563-3.125-1.301 3.785-4.851 6.52-9.078 6.52z" fill="#d1d3d4"/><path d="m689.832 181.74h-3.305c-2.941-7.996-10.559-13.73-19.578-13.73h-139.902c0 19.309 15.652 34.957 34.957 34.957h88.074 37.801 1.953c5.324 0 9.641-4.316 9.641-9.637v-1.949c0-5.324-4.317-9.641-9.641-9.641z" fill="none" stroke="#414042" stroke-miterlimit="10" stroke-width="6"/><path d="m567.16 179.123h-40.574c-2.59 0-4.688-2.098-4.688-4.688v-1.738c0-2.586 2.098-4.688 4.688-4.688h40.574c2.59 0 4.688 2.102 4.688 4.688v1.738c0 2.591-2.098 4.688-4.688 4.688z" fill="#00add0"/><path d="m645.895 207.065h-49.758c-2.59 0-4.688-2.098-4.688-4.688v-3.781c0-2.59 2.098-4.688 4.688-4.688h49.758c2.59 0 4.688 2.098 4.688 4.688v3.781c-.001 2.59-2.099 4.688-4.688 4.688z" fill="#00add0"/><path d="m567.16 179.123h-40.574c-2.59 0-4.688-2.098-4.688-4.688v-1.738c0-2.586 2.098-4.688 4.688-4.688h40.574c2.59 0 4.688 2.102 4.688 4.688v1.738c0 2.591-2.098 4.688-4.688 4.688z" fill="none" stroke="#414042" stroke-miterlimit="10" stroke-width="6"/><path d="m645.895 207.065h-49.758c-2.59 0-4.688-2.098-4.688-4.688v-3.781c0-2.59 2.098-4.688 4.688-4.688h49.758c2.59 0 4.688 2.098 4.688 4.688v3.781c-.001 2.59-2.099 4.688-4.688 4.688z" fill="none" stroke="#414042" stroke-miterlimit="10" stroke-width="6"/><path d="m658.273 179.123h17.512" fill="none" stroke="#414042" stroke-miterlimit="10" stroke-width="6"/><path d="m637.789 179.123h8.758" fill="none" stroke="#414042" stroke-miterlimit="10" stroke-width="6"/><path d="m623.68 179.123h8.754" fill="none" stroke="#414042" stroke-miterlimit="10" stroke-width="6"/><path d="m609.566 179.123h8.754" fill="none" stroke="#414042" stroke-miterlimit="10" stroke-width="6"/><path d="m595.453 179.123h8.758" fill="none" stroke="#414042" stroke-miterlimit="10" stroke-width="6"/><path d="m581.344 179.123h8.754" fill="none" stroke="#414042" stroke-miterlimit="10" stroke-width="6"/><path d="m678.34 408.895c-.629-1.859-2.727-3.363-4.688-3.363h-29.594v46.59c8.691 0 15.738 7.047 15.738 15.746h27.891v-31.172z" fill="#fff"/><path d="m654.578 433.254h25.637c.984 0 2.539.238 3.477.527l4.176 1.301-9.527-26.188s-1.004-4.703-9.043-3.363h-18.27v24.164c-.001 1.965 1.589 3.559 3.55 3.559z" fill="#00add0"/><path d="m589.234 470.332c0 6.082-4.934 11.016-11.012 11.016-6.086 0-11.012-4.934-11.012-11.016 0-6.078 4.926-11.012 11.012-11.012 6.079.001 11.012 4.934 11.012 11.012z" fill="#fff"/><path d="m589.234 470.332c0 6.082-4.934 11.016-11.012 11.016-6.086 0-11.012-4.934-11.012-11.016 0-6.078 4.926-11.012 11.012-11.012 6.079.001 11.012 4.934 11.012 11.012z" fill="none" stroke="#414042" stroke-miterlimit="10" stroke-width="6"/><path d="m582.566 470.332c0 2.406-1.941 4.348-4.344 4.348-2.398 0-4.348-1.941-4.348-4.348 0-2.398 1.949-4.344 4.348-4.344 2.403.001 4.344 1.946 4.344 4.344z" fill="#414042"/><path d="m652.805 470.332c0 6.082-4.934 11.016-11.008 11.016-6.086 0-11.016-4.934-11.016-11.016 0-6.078 4.93-11.012 11.016-11.012 6.074.001 11.008 4.934 11.008 11.012z" fill="#fff"/><path d="m652.805 470.332c0 6.082-4.934 11.016-11.008 11.016-6.086 0-11.016-4.934-11.016-11.016 0-6.078 4.93-11.012 11.016-11.012 6.074.001 11.008 4.934 11.008 11.012z" fill="none" stroke="#414042" stroke-miterlimit="10" stroke-width="6"/><path d="m646.141 470.332c0 2.406-1.945 4.348-4.344 4.348-2.402 0-4.352-1.941-4.352-4.348 0-2.398 1.949-4.344 4.352-4.344 2.398.001 4.344 1.946 4.344 4.344z" fill="#414042"/><path d="m560.113 470.332c0 6.082-4.934 11.016-11.012 11.016-6.086 0-11.012-4.934-11.012-11.016s4.926-11.012 11.012-11.012c6.079.001 11.012 4.93 11.012 11.012z" fill="#fff"/><path d="m560.113 470.332c0 6.082-4.934 11.016-11.012 11.016-6.086 0-11.012-4.934-11.012-11.016s4.926-11.012 11.012-11.012c6.079.001 11.012 4.93 11.012 11.012z" fill="none" stroke="#414042" stroke-miterlimit="10" stroke-width="6"/><path d="m553.449 470.332c0 2.406-1.945 4.348-4.348 4.348-2.398 0-4.348-1.941-4.348-4.348 0-2.398 1.949-4.344 4.348-4.344 2.403.001 4.348 1.946 4.348 4.344z" fill="#414042"/><path d="m634.594 461.25h-39.211" fill="none" stroke="#414042" stroke-miterlimit="10" stroke-width="6"/><path d="m531.734 466.098c0-7.418 6.02-13.441 13.441-13.441h36.973c7.426 0 13.441 6.023 13.441 13.441v2.828" fill="none" stroke="#414042" stroke-miterlimit="10" stroke-width="6"/><path d="m630.469 446.313h-98.043c-2.367 0-4.289-1.922-4.289-4.293v-62.035c0-2.367 1.922-4.289 4.289-4.289h98.043c2.371 0 4.293 1.922 4.293 4.289v62.035c0 2.371-1.922 4.293-4.293 4.293z" fill="#ff6d29"/><path d="m602.477 375.696h27.992c2.371 0 4.293 1.922 4.293 4.289v62.035c0 2.371-1.922 4.293-4.293 4.293h-98.043c-2.367 0-4.289-1.922-4.289-4.293v-34.703" fill="none" stroke="#414042" stroke-miterlimit="10" stroke-width="6"/><path d="m538.445 393.172h86.008v32.387h-86.008z" fill="#fff"/><path d="m672.41 405.094-24.871-21.016" fill="none" stroke="#414042" stroke-miterlimit="10" stroke-width="6"/><path d="m655.684 391.547v11.391" fill="none" stroke="#414042" stroke-miterlimit="10" stroke-width="6"/><path d="m678.34 408.895c-.629-1.859-2.727-3.363-4.688-3.363h-29.594v46.59c8.691 0 15.738 7.047 15.738 15.746h27.891v-31.172z" fill="none" stroke="#414042" stroke-miterlimit="10" stroke-width="6"/><path d="m690.652 467.606c0 .727-.59 1.32-1.316 1.32h-12.477c-.73 0-1.324-.594-1.324-1.32v-7.129c0-.727.594-1.32 1.324-1.32h12.477c.727 0 1.316.594 1.316 1.32z" fill="#9ecfef"/><path d="m690.652 467.606c0 .727-.59 1.32-1.316 1.32h-12.477c-.73 0-1.324-.594-1.324-1.32v-7.129c0-.727.594-1.32 1.324-1.32h12.477c.727 0 1.316.594 1.316 1.32z" fill="#f1f2f2" stroke="#414042" stroke-miterlimit="10" stroke-width="6"/><path d="m589.719 402.938h28.523" fill="none" stroke="#414042" stroke-miterlimit="10" stroke-width="6"/><path d="m544.656 415.328h73.586" fill="none" stroke="#414042" stroke-miterlimit="10" stroke-width="6"/><circle cx="556.09" cy="366.551" fill="#fff" r="40.766"/><path d="m584.555 337.371c7.586 7.406 12.301 17.742 12.301 29.18 0 22.516-18.254 40.766-40.766 40.766-22.516 0-40.766-18.25-40.766-40.766 0-22.512 18.25-40.762 40.766-40.762 3.852 0 7.582.531 11.113 1.531" fill="none" stroke="#414042" stroke-miterlimit="10" stroke-width="6"/><path d="m571.605 328.844c3.387 1.395 6.543 3.234 9.398 5.441" fill="none" stroke="#414042" stroke-miterlimit="10" stroke-width="6"/><path d="m577.371 366.551c0 11.754-9.527 21.281-21.281 21.281s-21.281-9.527-21.281-21.281c0-11.75 9.527-21.281 21.281-21.281s21.281 9.531 21.281 21.281z" fill="#00add0"/><path d="m558.09 366.551c0 1.105-.895 2-2 2s-2-.895-2-2c0-1.102.895-2 2-2s2 .898 2 2z" fill="none" stroke="#414042" stroke-miterlimit="10" stroke-width="6"/><path d="m556.09 329.289v7.082" fill="none" stroke="#414042" stroke-miterlimit="10" stroke-width="6"/><path d="m574.754 334.301-3.547 6.129" fill="none" stroke="#414042" stroke-miterlimit="10" stroke-width="6"/><path d="m588.398 347.989-6.14 3.527" fill="none" stroke="#414042" stroke-miterlimit="10" stroke-width="6"/><path d="m593.352 366.668-7.082-.023" fill="none" stroke="#414042" stroke-miterlimit="10" stroke-width="6"/><path d="m588.281 385.317-6.117-3.567" fill="none" stroke="#414042" stroke-miterlimit="10" stroke-width="6"/><path d="m574.57 398.957-3.504-6.156" fill="none" stroke="#414042" stroke-miterlimit="10" stroke-width="6"/><path d="m555.863 403.871.063-7.082" fill="none" stroke="#414042" stroke-miterlimit="10" stroke-width="6"/><path d="m537.215 398.731 3.609-6.098" fill="none" stroke="#414042" stroke-miterlimit="10" stroke-width="6"/><path d="m523.668 384.922 6.184-3.461" fill="none" stroke="#414042" stroke-miterlimit="10" stroke-width="6"/><path d="m518.828 366.207 7.082.067" fill="none" stroke="#414042" stroke-miterlimit="10" stroke-width="6"/><path d="m524.012 347.59 6.097 3.606" fill="none" stroke="#414042" stroke-miterlimit="10" stroke-width="6"/><path d="m537.824 334.071 3.473 6.175" fill="none" stroke="#414042" stroke-miterlimit="10" stroke-width="6"/><path d="m553.09 366.668 1.238-25.07h3.524l1.238 25.07z" fill="#414042"/><path d="m556.012 363.668 22.097.668.09 3.524-22.031 1.808z" fill="#414042"/><path d="m201.813 480.02h-66.75c-4.387 0-7.945-3.559-7.945-7.949v-115.629c0-4.391 3.559-7.949 7.945-7.949h66.75c4.391 0 7.949 3.559 7.949 7.949v115.629c0 4.39-3.559 7.949-7.949 7.949z" fill="#fff"/><path d="m127.117 390.391v-34.504c0-4.082 3.309-7.395 7.391-7.395h7.043 17.758 43.059c4.082 0 7.395 3.313 7.395 7.395v41.379" fill="none" stroke="#414042" stroke-miterlimit="10" stroke-width="6"/><path d="m209.762 438.328v34.297c0 4.086-3.313 7.395-7.395 7.395h-67.859c-4.082 0-7.391-3.309-7.391-7.395v-50.82" fill="none" stroke="#414042" stroke-miterlimit="10" stroke-width="6"/><path d="m156.207 358.403h24.461" fill="none" stroke="#414042" stroke-miterlimit="10" stroke-width="6"/><path d="m172.406 469.262c0 2.191-1.777 3.969-3.969 3.969s-3.965-1.777-3.965-3.969 1.773-3.965 3.965-3.965 3.969 1.774 3.969 3.965z" fill="none" stroke="#414042" stroke-miterlimit="10" stroke-width="6"/><path d="m135.379 367.477h66.117v93.164h-66.117z" fill="#00add0"/><path d="m198.195 451.731h3.809" fill="none" stroke="#414042" stroke-miterlimit="10" stroke-width="6"/><path d="m165.445 451.731h13.422" fill="none" stroke="#414042" stroke-miterlimit="10" stroke-width="6"/><path d="m105.68 395.797 20.285 1.535 17.39 54.399h2.891" fill="none" stroke="#414042" stroke-miterlimit="10" stroke-width="6"/><path d="m129.723 407.719h83.625" fill="none" stroke="#414042" stroke-miterlimit="10" stroke-width="6"/><path d="m132.672 417.114h76.004" fill="none" stroke="#414042" stroke-miterlimit="10" stroke-width="6"/><path d="m134.824 426.508h71.699" fill="none" stroke="#414042" stroke-miterlimit="10" stroke-width="6"/><path d="m162.77 451.731c0 3.723-3.016 6.738-6.738 6.738-3.719 0-6.734-3.016-6.734-6.738 0-3.719 3.016-6.734 6.734-6.734 3.722-.001 6.738 3.015 6.738 6.734z" fill="none" stroke="#414042" stroke-miterlimit="10" stroke-width="6"/><circle cx="188.295" cy="451.731" fill="none" r="6.736" stroke="#414042" stroke-miterlimit="10" stroke-width="6"/><path d="m214.082 402.614-10.894 34.042h-64.422" fill="none" stroke="#414042" stroke-miterlimit="10" stroke-width="6"/><path d="m79.613 481.348h655.285" fill="none" stroke="#414042" stroke-miterlimit="10" stroke-width="6"/><path d="m61.363 481.348h10.957" fill="none" stroke="#414042" stroke-miterlimit="10" stroke-width="6"/><path d="m741.148 481.348h24.2" fill="none" stroke="#414042" stroke-miterlimit="10" stroke-width="6"/></svg>